<?xml version="1.0" encoding="UTF-8"?>
<svg version="1.1" xmlns="http://www.w3.org/2000/svg" width="4500" height="2296">
<path d="M0 0 C1485 0 2970 0 4500 0 C4500 757.68 4500 1515.36 4500 2296 C3015 2296 1530 2296 0 2296 C0 1538.32 0 780.64 0 0 Z " fill="#A51B25" transform="translate(0,0)"/>
<path d="M0 0 C134.8565625 -0.061875 134.8565625 -0.061875 272.4375 -0.125 C300.79872803 -0.14320801 329.15995605 -0.16141602 358.38061523 -0.18017578 C393.0802002 -0.18920898 393.0802002 -0.18920898 409.33753967 -0.19088745 C421.40688898 -0.19286866 433.4762156 -0.20146229 445.54555857 -0.21334685 C457.88730105 -0.22533368 470.22902941 -0.22965485 482.57077748 -0.2268899 C489.2537973 -0.22559116 495.93676975 -0.2274924 502.61978424 -0.23843026 C535.85926532 -0.29017471 568.94098059 -0.21759316 601.9375 4.3125 C602.74321442 4.41949219 603.54892883 4.52648437 604.37905884 4.63671875 C618.69654512 6.53893329 632.89287621 8.87884309 647 12 C647.82209961 12.17966309 648.64419922 12.35932617 649.49121094 12.54443359 C696.80902984 23.09515976 744.28644214 40.86755257 784 69 C784.70624512 69.49870605 785.41249023 69.99741211 786.14013672 70.51123047 C796.12697001 77.60032974 805.67987306 84.8713296 814.42431641 93.45947266 C816.08151898 95.07970015 817.76413694 96.67053952 819.44921875 98.26171875 C828.34411415 106.77409074 835.82262883 116.01398809 843 126 C843.43231934 126.58765137 843.86463867 127.17530273 844.31005859 127.78076172 C890.06281536 190.27630948 901.95926309 276.71374935 890.35546875 351.7734375 C889.01554807 360.16830571 887.60989899 368.52507065 885.55224609 376.77685547 C884.93197008 379.27386402 884.35265094 381.77922068 883.76953125 384.28515625 C878.38265643 406.74147219 869.92478344 428.18540448 860 449 C859.6297168 449.7935791 859.25943359 450.5871582 858.87792969 451.40478516 C846.97354278 476.84618986 831.19966379 500.62162781 813 522 C812.11421437 523.0595875 811.22881897 524.11950131 810.34375 525.1796875 C799.38156411 538.2259819 787.88891535 550.83247569 775 562 C773.24838168 563.62325545 771.4984627 565.24834602 769.75 566.875 C760.09734584 575.65509785 749.61959387 583.43624844 739 591 C741.85550595 596.18022374 744.99638568 601.00492736 748.4375 605.8125 C748.95828125 606.54533203 749.4790625 607.27816406 750.015625 608.03320312 C754.35929669 614.13404033 758.74843576 620.20212963 763.14233398 626.2668457 C766.79880987 631.31880665 770.41279725 636.39866055 774 641.5 C779.71892312 649.62966628 785.5311128 657.68961173 791.36328125 665.73828125 C792.98509064 667.97939733 794.60265132 670.22351315 796.21875 672.46875 C803.48921757 682.56613085 810.83944415 692.60199963 818.23388672 702.60888672 C820.57579283 705.77955696 822.91394708 708.95298249 825.25170898 712.12670898 C826.41885606 713.71110177 827.5863375 715.29524829 828.75415039 716.87915039 C831.65128356 720.80881327 834.54454409 724.74121164 837.4296875 728.6796875 C844.19523068 737.9054282 851.05879057 747.04726317 858.0144043 756.13061523 C863.22877053 762.95252747 868.34308054 769.84322321 873.39648438 776.78515625 C873.92951172 777.51476563 874.46253906 778.244375 875.01171875 778.99609375 C875.5123584 779.68171387 876.01299805 780.36733398 876.52880859 781.07373047 C877.93216485 782.91118166 879.41766257 784.62400814 880.95703125 786.34765625 C881.96830078 787.66056641 881.96830078 787.66056641 883 789 C882.67 789.99 882.34 790.98 882 792 C879.64941406 792.90380859 879.64941406 792.90380859 876.515625 793.6484375 C875.3503125 793.93203125 874.185 794.215625 872.984375 794.5078125 C871.75203125 794.79398438 870.5196875 795.08015625 869.25 795.375 C868.095 795.6534375 866.94 795.931875 865.75 796.21875 C862.56168244 796.98477435 859.37084179 797.73837639 856.17849731 798.48733521 C852.14167987 799.43731764 848.10822266 800.40143539 844.07421875 801.36328125 C838.42422765 802.70940784 832.77389639 804.05406852 827.12255859 805.39453125 C804.33890477 810.80026207 781.58711308 816.23836267 758.9921875 822.390625 C753.20525708 823.96211504 747.39275906 825.37195177 741.54858398 826.71166992 C732.69360258 828.74438535 723.94840248 831.16429553 715.20703125 833.6328125 C704.53206628 836.6465409 693.85947704 839.58757664 683.08691406 842.23291016 C676.40416705 843.88010393 669.77657064 845.68767155 663.15234375 847.5546875 C659.14953089 848.68267226 655.14038282 849.78603971 651.12890625 850.8828125 C634.9247429 855.31271044 634.9247429 855.31271044 618.8125 860.0625 C610.89351545 862.48063195 602.92892996 864.70854636 594.9375 866.875 C593.79966064 867.18574463 592.66182129 867.49648926 591.48950195 867.81665039 C590.42948975 868.10145264 589.36947754 868.38625488 588.27734375 868.6796875 C587.33109131 868.93476074 586.38483887 869.18983398 585.40991211 869.45263672 C583 870 583 870 580 870 C578.4128418 868.20605469 578.4128418 868.20605469 576.69921875 865.671875 C576.05911865 864.73722412 575.41901855 863.80257324 574.75952148 862.83959961 C574.07575439 861.82003174 573.3919873 860.80046387 572.6875 859.75 C571.23480849 857.62079793 569.78167589 855.49189674 568.328125 853.36328125 C567.59916016 852.28900879 566.87019531 851.21473633 566.11914062 850.10791016 C563.10381289 845.68566106 560.0213656 841.31206969 556.9375 836.9375 C550.17445724 827.29805541 543.5391585 817.57355645 536.92431641 807.83203125 C535.05000761 805.07359658 533.17207601 802.31766753 531.29296875 799.5625 C527.33059699 793.75008351 523.37785295 787.93116594 519.42999268 782.10888672 C518.41302116 780.6091044 517.39587188 779.10944261 516.37860107 777.60986328 C488.45716114 736.44576169 488.45716114 736.44576169 479.16674805 721.59399414 C475.46195368 715.67259309 471.55726648 709.9340938 467.4765625 704.265625 C466 702 466 702 466 700 C458.95720723 701.75484746 451.91475323 703.51104794 444.8727026 705.26887131 C441.60108424 706.08548371 438.32932858 706.90153582 435.05737305 707.71679688 C416.55816061 712.31492398 416.55816061 712.31492398 398.12231445 717.15869141 C393.87487898 718.30316421 389.61385264 719.39223169 385.3527832 720.48461914 C375.30475066 723.06179775 365.29124011 725.72862275 355.3125 728.5625 C346.09797666 731.17848447 336.84738562 733.57896087 327.54638672 735.86694336 C320.82938321 737.52475462 314.15168576 739.28622105 307.49633789 741.17626953 C302.74832195 742.52464145 297.98499924 743.81102526 293.21508789 745.07958984 C292.5202253 745.2646257 291.8253627 745.44966156 291.10944366 745.64030457 C289.40636139 746.09378287 287.70318968 746.54692525 286 747 C285.24933489 773.86722975 284.76894602 800.7288241 284.49474788 827.60492325 C284.44345314 832.57086656 284.38882658 837.53677343 284.33460999 842.50268555 C284.23321665 851.83343763 284.13465743 861.16421723 284.03721577 870.49501133 C283.92581338 881.14872348 283.81110025 891.80239927 283.69616115 902.45607376 C283.46052219 924.30401165 283.22887144 946.15199023 283 968 C281.09492029 968.79611804 279.18959999 969.59166037 277.28417969 970.38696289 C276.22318054 970.83004288 275.1621814 971.27312286 274.06903076 971.72962952 C270.14923141 973.35216047 266.20718426 974.90892601 262.25 976.4375 C261.5796875 976.69853516 260.909375 976.95957031 260.21875 977.22851562 C250.44378446 981.0189904 240.61202958 984.66377234 230.78112793 988.30622864 C163.69203527 1013.17075987 97.1358829 1039.834376 31.34765625 1067.96484375 C30.41043732 1068.36524872 29.47321838 1068.76565369 28.50759888 1069.17819214 C24.04910453 1071.0843738 19.59381335 1072.99751991 15.14355469 1074.92285156 C13.57100878 1075.5984126 11.99842016 1076.27387423 10.42578125 1076.94921875 C9.71253189 1077.26068344 8.99928253 1077.57214813 8.26441956 1077.89305115 C5.33689517 1079.14550211 3.22016753 1080 0 1080 C0 723.6 0 367.2 0 0 Z " fill="#EAE5D2" transform="translate(239,853)"/>
<path d="M0 0 C274.56 0 549.12 0 832 0 C832 101.97 832 203.94 832 309 C791.30721469 304.47857941 791.30721469 304.47857941 771.81572914 302.25820541 C711.30672506 295.36778858 650.79147159 288.5673687 590.21101379 282.33081055 C586.78234508 281.97757638 583.35375091 281.62362526 579.9251709 281.26953125 C516.06032157 274.67460105 452.1905901 268.19531656 388.23997307 262.47841454 C373.9529332 261.19985205 359.67657919 259.81882482 345.40272522 258.40098572 C328.94911401 256.77116894 312.4776345 255.36280007 296 254 C296.04102089 254.8295797 296.04102089 254.8295797 296.08287048 255.67591858 C296.87209455 271.92704713 297.28334965 288.17044062 297.5625 304.4375 C297.60585423 306.83789544 297.64947276 309.23828611 297.69335938 311.63867188 C297.79860458 317.42573022 297.90064562 323.21283767 298 329 C298.57214737 329.06184479 299.14429474 329.12368958 299.73377991 329.18740845 C326.21799634 332.05410275 352.68351718 335.00207403 379.10006714 338.44174194 C391.88682848 340.10650554 404.6779149 341.68380243 417.49032593 343.13824463 C436.01186053 345.24198443 454.49184968 347.59777674 472.96777344 350.06884766 C475.27017286 350.37669814 477.57258195 350.68447635 479.875 350.9921875 C481.05709045 351.15018829 482.23918091 351.30818909 483.45709229 351.47097778 C493.301117 352.78263191 503.14982514 354.05582528 513 355.3203125 C551.3571519 360.24816615 589.67100382 365.40981932 627.95631409 370.86754417 C638.64138663 372.39030184 649.33045377 373.88151308 660.0234375 375.34765625 C661.4222667 375.53955545 662.82109584 375.73145506 664.21992493 375.9233551 C666.29966987 376.20860944 668.37941828 376.49383848 670.45917225 376.77902699 C694.62412088 380.09315141 718.75969622 383.56295693 742.87036133 387.25341797 C756.82806344 389.38775223 770.79454381 391.42298513 784.79223633 393.27832031 C796.92599577 394.91163707 808.89715548 396.98285925 821 399 C821 490.41 821 581.82 821 676 C813.75155295 674.79192549 806.91779939 673.61758854 799.90234375 671.6796875 C798.24854411 671.23401626 796.59473528 670.7883791 794.94091797 670.34277344 C794.11597839 670.11827515 793.29103882 669.89377686 792.44110107 669.66247559 C788.65423367 668.63478065 784.8603973 667.63382677 781.06640625 666.6328125 C780.31243057 666.43348114 779.5584549 666.23414978 778.78163147 666.02877808 C758.7775715 660.74336728 738.73102108 655.63408296 718.6580925 650.61751556 C716.71560653 650.13202474 714.77322303 649.64612402 712.83084106 649.16021729 C698.30319894 645.52857066 683.76284952 641.96328565 669.18948364 638.51983643 C666.02174142 637.76773773 662.85834319 636.99820736 659.6953125 636.2265625 C646.11506699 632.91452976 632.51173777 629.74283026 618.86962891 626.69580078 C609.38631543 624.56993172 599.93973 622.31104423 590.5 620 C567.67975309 614.42080486 544.75201174 609.35573131 521.78512573 604.4213562 C512.27545167 602.37762485 502.7824693 600.28446951 493.3125 598.0625 C429.57402226 583.18633807 365.19953247 570.70920358 301 558 C301.09849243 559.78120239 301.09849243 559.78120239 301.19897461 561.59838867 C302.00262325 576.83190155 302.31304674 592.06123323 302.5625 607.3125 C302.60583047 609.81836439 302.64944857 612.32422383 302.69335938 614.83007812 C302.79887787 620.88666581 302.9008877 626.94330426 303 633 C304.06919678 633.23074219 305.13839355 633.46148438 306.23999023 633.69921875 C325.34768863 637.82925029 344.43134157 642.01385028 363.41375732 646.68969727 C372.43912777 648.9125799 381.4793455 651.02513817 390.5625 653 C401.79032585 655.4449653 412.93126634 658.17502615 424.06274414 661.02148438 C430.43455055 662.64283881 436.81073749 664.1950108 443.22869873 665.62376404 C458.68377128 669.06565863 474.00803288 673.00594973 489.34521484 676.93243408 C495.91800463 678.61489313 502.49188679 680.29306387 509.06640625 681.96875 C510.1156556 682.23639978 510.1156556 682.23639978 511.18610191 682.50945663 C520.65681163 684.92355454 530.13924219 687.27786393 539.65943909 689.49035645 C544.00019213 690.50181209 548.28624292 691.61091335 552.5625 692.875 C559.63519777 694.96119143 566.78115063 696.72467666 573.9375 698.5 C586.1777781 701.53974081 598.37143778 704.65739956 610.48925781 708.15820312 C611.37967773 708.41537109 612.27009766 708.67253906 613.1875 708.9375 C614.07791992 709.19466797 614.96833984 709.45183594 615.88574219 709.71679688 C622.78301071 711.69170896 629.71690031 713.46452701 636.68359375 715.17553711 C648.59434328 718.11206373 660.37241337 721.50056014 672.1315918 724.98876953 C683.77247351 728.42785101 695.48258183 731.63004967 707.17626953 734.88378906 C719.53546655 738.32383924 731.87317743 741.82214425 744.18066406 745.44311523 C750.86940404 747.40252648 757.58068976 749.25724242 764.3125 751.0625 C772.78555962 753.33970084 781.14368547 755.88411809 789.49609375 758.56640625 C803.55172087 763.07106774 817.81322691 766.94663626 832 771 C832 872.97 832 974.94 832 1080 C828.60390069 1079.32078014 826.23300028 1078.81452041 823.18334961 1077.51977539 C822.10296921 1077.06540352 822.10296921 1077.06540352 821.00076294 1076.60185242 C820.22578461 1076.27046768 819.45080627 1075.93908295 818.65234375 1075.59765625 C817.4115657 1075.07417351 817.4115657 1075.07417351 816.14572144 1074.54011536 C814.35102712 1073.78262719 812.55717356 1073.02314465 810.7640686 1072.26190186 C805.90202342 1070.19878334 801.03275106 1068.1528489 796.1640625 1066.10546875 C795.15634293 1065.68134705 794.14862335 1065.25722534 793.11036682 1064.82025146 C754.38885312 1048.54102909 715.3835245 1032.91021023 676.21386719 1017.74316406 C668.37408089 1014.70691098 660.54768108 1011.64331713 652.75 1008.5 C643.07348708 1004.60261351 633.31529324 1000.95140721 623.5234375 997.35546875 C621.95311949 996.77866085 620.38280709 996.20183764 618.8125 995.625 C617.6205603 995.18764526 617.6205603 995.18764526 616.40454102 994.74145508 C610.54235679 992.58442001 604.70629524 990.36398796 598.875 988.125 C589.94937159 984.7019755 580.96995745 981.44254433 571.96875 978.22412109 C566.0834309 976.11790244 560.21736664 973.97242486 554.375 971.75 C548.13233176 969.38773246 541.84663182 967.23701993 535.5 965.17578125 C532.31122151 964.10455098 529.17136095 962.9531174 526.02685547 961.76098633 C522.7228051 960.520475 519.39273305 959.35549593 516.0625 958.1875 C514.56638154 957.6615286 513.07028852 957.13548485 511.57421875 956.609375 C510.8167334 956.34318359 510.05924805 956.07699219 509.27880859 955.80273438 C507.06603931 955.02326304 504.85499369 954.23911164 502.64453125 953.453125 C494.61363524 950.60050097 486.56459789 947.82710685 478.46484375 945.17578125 C476.07521223 944.36486909 473.70077425 943.50824498 471.34069824 942.61495972 C466.95594154 940.96476078 462.52928499 939.46282215 458.08398438 937.98486328 C457.2306955 937.69984955 456.37740662 937.41483582 455.4982605 937.1211853 C452.69725561 936.18605885 449.89553099 935.2531108 447.09375 934.3203125 C445.12566256 933.66405842 443.1576048 933.00771534 441.1895752 932.35128784 C437.06778863 930.97686851 432.94564393 929.60353008 428.82324219 928.23095703 C423.58255179 926.48594943 418.34275619 924.73827291 413.10323334 922.98976326 C409.03682682 921.63307918 404.96993705 920.27784841 400.90290833 918.92303085 C398.97338754 918.28007718 397.04401113 917.63669004 395.11479187 916.99283218 C384.91980948 913.59127002 374.71650224 910.24250506 364.44030762 907.09371948 C360.94513501 905.98255769 357.50499363 904.76416124 354.0625 903.5 C348.29440902 901.40310622 342.4846157 899.63296888 336.58911133 897.94311523 C331.42575554 896.45145345 326.33594615 894.79839822 321.25 893.0625 C313.76975061 890.51641533 306.22136892 888.31111314 298.61303711 886.18212891 C293.45906667 884.7307754 288.37906383 883.16965857 283.3125 881.4375 C277.25362607 879.3673298 271.15478036 877.62011463 264.97851562 875.94726562 C259.37520294 874.41648829 253.84157606 872.71661399 248.3125 870.9375 C241.61876152 868.78709609 234.90573863 866.87927941 228.09765625 865.1171875 C223.08453392 863.78352431 218.14197184 862.22205242 213.1875 860.6875 C203.68001413 857.74984252 194.1154012 855.10568301 184.49633789 852.55981445 C177.83104231 850.7874846 171.21724633 848.9013696 164.625 846.875 C157.22984079 844.60460865 149.79484467 842.64875994 142.27880859 840.8215332 C137.05369158 839.54211107 131.89685377 838.12572424 126.75 836.5625 C117.80332949 833.8530168 108.74190026 831.64421193 99.66796875 829.40625 C92.75216512 827.69926399 85.8775133 825.85502224 79 824 C76.0220993 823.20351976 73.04271522 822.41277372 70.0625 821.625 C68.88131592 821.31248291 68.88131592 821.31248291 67.67626953 820.99365234 C63.17834124 819.81130402 58.67315786 818.6663328 54.15625 817.55859375 C53.14425537 817.30964355 52.13226074 817.06069336 51.08959961 816.80419922 C49.16966033 816.33377616 47.2487071 815.86745693 45.32641602 815.40673828 C35.44187491 812.98423464 25.73032179 809.97132564 16 807 C14.31553243 764.24918795 13.47386555 721.49242983 12.75684452 678.7157793 C12.69794785 675.20638058 12.63841102 671.69699315 12.57878113 668.18760681 C12.50573835 663.88878416 12.43539758 659.5899319 12.36714172 655.29103088 C12.20064027 645.16606979 11.97987516 635.04507685 11.67691422 624.92322922 C11.11793969 606.20997365 10.7381397 587.494399 10.39331055 568.77612305 C10.3799263 568.05058043 10.36654204 567.32503781 10.35275221 566.57750905 C10.20976001 558.82126845 10.06803945 551.0650049 9.92694306 543.30872961 C9.59006455 524.79342144 9.24462515 506.27827397 8.89599609 487.76318359 C8.87840715 486.82861299 8.86081821 485.89404239 8.84269626 484.93115146 C8.00622142 440.51772879 7.08768669 396.10608394 6.15596712 351.69457156 C5.93440788 341.13277425 5.71379905 330.57095715 5.49318825 320.00914 C4.7276837 283.36669651 3.95941186 246.72431305 3.18315021 210.08209578 C2.79484903 191.74809273 2.41078875 173.41400384 2.03025264 155.07983798 C1.79958199 143.97325214 1.56572667 132.866744 1.327176 121.76032456 C1.16508721 114.20010053 1.00712269 106.6397967 0.85210208 99.07942448 C0.74927881 94.07141613 0.64354067 89.06349644 0.5316658 84.05568159 C-0.0709033 56.02418004 0 28.05308967 0 0 Z " fill="#EAE5D2" transform="translate(3429,853)"/>
<path d="M0 0 C83.5621875 -0.37125 83.5621875 -0.37125 168.8125 -0.75 C186.41053955 -0.85924805 204.0085791 -0.96849609 222.13989258 -1.08105469 C243.60876465 -1.13525391 243.60876465 -1.13525391 253.65531921 -1.14532471 C260.68115888 -1.15651722 267.705854 -1.20053893 274.73136902 -1.26690674 C282.83603808 -1.34335563 290.93960923 -1.37801778 299.04464148 -1.36133941 C303.19030782 -1.35411646 307.33352153 -1.36546866 311.47873652 -1.43058157 C338.66020828 -1.83740117 338.66020828 -1.83740117 344.93462628 4.1930759 C346.9455859 6.62829611 348.48147972 9.23744685 350 12 C351.19668478 13.369523 352.42664108 14.71227851 353.71484375 15.99609375 C354.51656006 16.85291748 354.51656006 16.85291748 355.33447266 17.72705078 C355.86347168 18.29149902 356.3924707 18.85594727 356.9375 19.4375 C362.82708674 25.73538822 368.6856648 32.06096724 374.52783203 38.40283203 C376.02650133 40.02875152 377.52667664 41.6532681 379.02734375 43.27734375 C384.315599 49.0007624 389.59351452 54.73332713 394.85571289 60.48071289 C398.2280121 64.16227543 401.6118627 67.83301263 405 71.5 C412.94525212 80.1016938 420.86635944 88.72251481 428.6875 97.4375 C431.27615003 100.30600409 433.88585146 103.1547665 436.5 106 C440.59166107 110.45335487 444.64822946 114.93659854 448.6875 119.4375 C451.27615036 122.30600445 453.88589108 125.15472981 456.5 128 C461.36944104 133.30123075 466.19323983 138.64192683 471 144 C472.49971128 145.66692647 473.99971321 147.33359149 475.5 149 C476.60988281 150.23363281 476.60988281 150.23363281 477.7421875 151.4921875 C479.26708244 153.18592894 480.79315402 154.87861169 482.3203125 156.5703125 C485.71872932 160.33737115 489.1081661 164.10915586 492.4375 167.9375 C495.24822525 171.16559512 498.115799 174.33738443 501 177.5 C504.45328153 181.28662998 507.86099051 185.1047632 511.22265625 188.97265625 C513.29359487 191.33489173 515.39512848 193.66795853 517.5 196 C520.76704335 199.62023723 523.99520776 203.26983565 527.1953125 206.94921875 C529.22958141 209.26088797 531.3022231 211.5353143 533.375 213.8125 C536.44746773 217.21083552 539.38442622 220.67590523 542.25 224.25 C546.34822522 229.32262842 550.73109151 234.05907994 555.19775391 238.80322266 C559.26137809 243.14258852 563.04162566 247.64723205 566.7578125 252.2890625 C569.23906629 255.28904531 571.84865956 258.1515203 574.5 261 C578.76923405 265.58754766 582.75758961 270.3344328 586.6875 275.21875 C589.19971133 278.24019336 591.82402457 281.12440078 594.5 284 C598.7895776 288.61001639 602.80410897 293.37783236 606.75390625 298.28515625 C609.0883059 301.10673495 611.51990598 303.80590712 614 306.5 C618.11378909 310.9698512 621.97087297 315.59044893 625.78515625 320.31640625 C627.95632827 322.94708557 630.20241357 325.47942424 632.5 328 C636.32170863 332.19729034 639.91474189 336.53710231 643.484375 340.94921875 C646.42924949 344.52056499 649.45716976 348.01214487 652.5 351.5 C656.9651797 356.62035452 661.32208087 361.80604406 665.59375 367.08984375 C669.22681416 371.48372816 672.98372263 375.76912529 676.74804688 380.05078125 C677.28494141 380.664375 677.82183594 381.27796875 678.375 381.91015625 C678.85710938 382.45808838 679.33921875 383.00602051 679.8359375 383.57055664 C681 385 681 385 682 387 C682.1087084 367.83471923 681.78869926 348.68548726 681.40819907 329.52531981 C681.32060488 325.08810519 681.23574557 320.65083806 681.15052795 316.21357727 C681.0030726 308.55447448 680.85394435 300.8954058 680.70362854 293.23635864 C680.4863086 282.1631202 680.27159137 271.08983244 680.05747765 260.01653159 C679.7098914 242.04402594 679.36024566 224.07156099 679.00927734 206.09912109 C678.66866494 188.65675943 678.32904484 171.2143789 677.99072266 153.77197266 C677.96960014 152.683051 677.94847761 151.59412934 677.92671502 150.47221005 C677.76149234 141.9541501 677.59632659 133.43608904 677.43117881 124.91802764 C676.62386144 83.27862488 675.8115858 41.6393202 675 0 C771.69 0 868.38 0 968 0 C969.15615718 31.21624382 969.15615718 31.21624382 969.43061829 45.07434082 C969.45108027 46.09355118 969.47154224 47.11276154 969.49262428 48.16285706 C969.51374968 49.21706345 969.53487507 50.27126984 969.55664062 51.35742188 C969.60423404 53.64941806 969.65202587 55.94141013 969.69999695 58.23339844 C969.80164567 63.10942612 969.90195026 67.98547878 970.00114441 72.86155701 C970.1588184 80.61091866 970.3197542 88.36021068 970.4810791 96.10949707 C970.70760369 107.00591408 970.93280895 117.90235747 971.15673828 128.79882812 C971.17792617 129.82980349 971.17792617 129.82980349 971.19954211 130.88160664 C971.25673676 133.66471718 971.31392971 136.44782776 971.37111971 139.2309384 C971.52818532 146.87336647 971.68564382 154.51578643 971.84326172 162.15820312 C971.85736857 162.84222543 971.87147542 163.52624773 971.88600975 164.23099798 C972.12352382 175.74573797 972.3621638 187.26045443 972.60141706 198.77515841 C972.76056862 206.43959046 972.9182741 214.10405045 973.07486916 221.76853514 C973.76043669 255.38176324 973.76043669 255.38176324 974.67861176 288.98925018 C975.05977157 301.41657665 975.26504856 313.84386847 975.44555664 326.27563477 C975.69520324 343.35347696 975.95097926 360.42888639 976.5 377.5 C977.03060088 393.99837109 977.2739706 410.50012572 977.53125 427.00469971 C977.7680608 442.17307904 978.01235969 457.33743426 978.5 472.5 C979.03060088 488.99837109 979.2739706 505.50012572 979.53125 522.00469971 C979.7680608 537.17307904 980.01235969 552.33743426 980.5 567.5 C981.03060088 583.99837109 981.2739706 600.50012572 981.53125 617.00469971 C981.76806121 632.17310544 982.01349387 647.33738428 982.5 662.5 C983.74327146 701.98313791 984.22295888 741.49854588 984 781 C968.35953996 778.04779432 952.74797082 774.96130623 937.14453125 771.8203125 C935.24397371 771.43810076 933.34341008 771.05591931 931.44284058 770.67376709 C923.6167266 769.09970966 915.79072441 767.52511957 907.96606445 765.94384766 C883.79943469 761.06172486 859.61358757 756.39241875 835.33051395 752.12513256 C824.12605124 750.14941512 812.95494229 748.00062417 801.79150391 745.80615234 C785.07373135 742.52718678 768.31702253 739.62510696 751.48828125 736.97265625 C749.30464788 736.62785496 747.12105382 736.28280467 744.9375 735.9375 C743.87466797 735.76976074 742.81183594 735.60202148 741.71679688 735.42919922 C736.32186486 734.56767373 730.96985361 733.63005476 725.625 732.5 C717.76932942 730.86193416 709.84678225 729.76895175 701.90625 728.62548828 C691.93357657 727.17434348 682.00770869 725.50053211 672.08349609 723.75048828 C670.95508301 723.55181152 669.82666992 723.35313477 668.6640625 723.1484375 C667.56481445 722.95475586 666.46556641 722.76107422 665.33300781 722.56152344 C660.88337284 721.81187793 656.41989494 721.17073066 651.95068359 720.54931641 C647.26052783 719.67616975 643.18768342 718.89338186 640.0703125 715.09375 C639.58925049 714.51987549 639.10818848 713.94600098 638.61254883 713.35473633 C638.12165771 712.74267334 637.6307666 712.13061035 637.125 711.5 C636.60252686 710.86924561 636.08005371 710.23849121 635.54174805 709.58862305 C634.01374362 707.73670334 632.50417413 705.8712981 631 704 C629.89205078 702.63294922 629.89205078 702.63294922 628.76171875 701.23828125 C627.47561512 699.63773946 626.19551844 698.03234976 624.921875 696.421875 C621.33623264 691.90338259 617.65876306 687.45931292 614 683 C612.49971683 681.16689838 610.99971592 679.33356573 609.5 677.5 C608.75492188 676.58992188 608.00984375 675.67984375 607.2421875 674.7421875 C605.7659514 672.93675589 604.29193264 671.12950859 602.8203125 669.3203125 C598.74333695 664.31477313 594.61959348 659.35515921 590.4375 654.4375 C586.56769574 649.88705686 582.80040487 645.27167649 579.08984375 640.58984375 C576.1671511 636.96789006 573.15065773 633.42870074 570.13452148 629.88452148 C567.23696577 626.4753091 564.38255209 623.03647722 561.5625 619.5625 C557.60491812 614.69870975 553.53457554 609.94118769 549.44165039 605.19165039 C546.41054711 601.66701081 543.43014684 598.10960118 540.5 594.5 C536.60649477 589.70691234 532.60961222 585.0121823 528.58203125 580.33203125 C525.20187334 576.40420219 521.8420252 572.46031496 518.5 568.5 C513.20370169 562.22809286 507.86395351 555.99408665 502.51611328 549.76611328 C500.00899015 546.84557725 497.50462672 543.92267689 495 541 C494.00001341 539.83332184 493.0000134 538.66665518 492 537.5 C486 530.5 486 530.5 484.50024414 528.75024414 C483.49948394 527.58271772 482.49867008 526.4152373 481.49780273 525.24780273 C479.00899324 522.34466371 476.52109909 519.44075051 474.03515625 516.53515625 C460.79771928 501.00637069 460.79771928 501.00637069 447.25 485.75 C444.28032028 482.47850165 441.45660445 479.13030428 438.6875 475.6875 C434.79614512 470.87254256 430.66870856 466.34912829 426.43994141 461.83447266 C423.34263774 458.50897767 420.40400241 455.11307457 417.5625 451.5625 C412.98085598 445.85422221 408.01197564 440.55703962 403.0078125 435.22265625 C400.1577443 432.18205669 397.39511189 429.07651576 394.671875 425.921875 C392.64241927 423.58894926 390.572353 421.29488755 388.5 419 C385.23609152 415.38323655 382.01209051 411.73610392 378.8125 408.0625 C376.72788836 405.69035571 374.61571356 403.34443935 372.5 401 C369.81016569 398.01937279 367.13689636 395.02754767 364.5 392 C360.38917573 387.28297123 356.1925774 382.64430291 352 378 C350.49971321 376.33359149 348.99971128 374.66692647 347.5 373 C346.7575 372.175 346.015 371.35 345.25 370.5 C329.5 353 313.75 335.5 298 318 C297.7450849 360.4744574 298.13962003 402.9390111 298.65625 445.41015625 C298.67284912 446.77820697 298.68944687 448.1462577 298.70604324 449.51430845 C298.93710483 468.53861612 299.17673974 487.56281365 299.41799432 506.58699433 C299.51868901 514.530889 299.61862305 522.47479319 299.71826172 530.41870117 C299.72722271 531.13306165 299.73618369 531.84742212 299.74541622 532.58342988 C299.89638684 544.62488374 300.04523451 556.66636322 300.19290113 568.70785803 C300.29066967 576.67001417 300.39127208 584.63212807 300.49395514 592.59422272 C300.86774852 621.73109346 301.10288543 650.86065124 301 680 C293.65163648 679.55952465 286.30328747 679.11882163 278.95507812 678.67578125 C274.43209053 678.40308691 269.9090907 678.1306147 265.38598633 677.85986328 C261.01375068 677.59806362 256.64160047 677.33487708 252.26953125 677.0703125 C251.53863848 677.02609476 250.8077457 676.98187702 250.05470467 676.93631935 C240.21475098 676.33908584 230.38021676 675.6871458 220.546875 674.98828125 C204.66045917 673.86819872 188.76258891 673.00864258 172.8584137 672.18753433 C170.3956924 672.06034074 167.93301422 671.93233307 165.47033691 671.80429077 C139.73685534 670.47025506 113.99826065 669.3199522 88.25 668.3125 C87.4723164 668.28195148 86.6946328 668.25140297 85.89338303 668.21992874 C71.96512886 667.6734635 58.03661523 667.13968079 44.10351562 666.73193359 C43.00446962 666.69963606 43.00446962 666.69963606 41.88322067 666.66668606 C38.4290922 666.56587248 34.9749473 666.46856296 31.52056885 666.37654114 C21.65782709 666.09948219 11.86335218 665.54796401 2 665 C1.34 445.55 0.68 226.1 0 0 Z " fill="#EAE5D2" transform="translate(2348,853)"/>
<path d="M0 0 C1.94967404 0.00056958 1.94967404 0.00056958 3.93873543 0.00115067 C4.66251321 -0.00000318 5.38629099 -0.00115702 6.13200143 -0.00234583 C8.58810422 -0.0050194 11.0441431 -0.0004843 13.50024265 0.00394398 C15.26652042 0.00350843 17.03279813 0.00263382 18.79907548 0.00135481 C23.67669789 -0.00089332 28.55429857 0.00313545 33.4319182 0.00813287 C38.68280176 0.01243266 43.933684 0.01099129 49.18456882 0.0102306 C58.29006153 0.00970506 67.3955471 0.01285495 76.50103801 0.01846844 C89.66621289 0.02657944 102.8313843 0.02919825 115.9965614 0.03045643 C137.35378308 0.03264758 158.71100095 0.03930937 180.06822056 0.04875904 C200.82049901 0.05793153 221.57277643 0.06501316 242.32505649 0.06926686 C244.24231357 0.06966094 244.24231357 0.06966094 246.19830311 0.07006299 C252.61021497 0.07136798 259.02212683 0.0726317 265.4340387 0.07387489 C318.66651276 0.08424947 371.89898268 0.10186949 425.13145298 0.1241985 C426.73628016 3.16848992 428.34030765 6.21320201 429.94419712 9.25798756 C430.39604625 10.11510334 430.84789539 10.97221913 431.31343693 11.85530812 C434.46065063 17.83118254 437.56263794 23.82599434 440.56895298 29.8741985 C440.99696705 30.73370106 441.42498111 31.59320362 441.86596531 32.47875172 C444.43647888 37.65999784 446.96603809 42.85637341 449.43298191 48.08763844 C457.92209324 66.05481452 466.8887348 83.7903231 475.78355259 101.55876881 C478.21198435 106.40992174 480.63680149 111.26287094 483.0605616 116.11635929 C484.9612891 119.92146742 486.86395981 123.72560143 488.767178 127.5294643 C489.66102666 129.31650618 490.55430737 131.10383228 491.44694561 132.89147907 C496.34898451 142.70572886 501.33841794 152.4637885 506.47121376 162.1594196 C510.3343977 169.47188475 514.0538615 176.85154608 517.73535007 184.25682789 C518.8962125 186.5917402 520.05986715 188.92524457 521.22410434 191.25847584 C524.11097881 197.04534078 526.9933944 202.83442348 529.87589878 208.62346607 C532.71917439 214.3332049 535.56432447 220.04200344 538.41270298 225.7491985 C538.80420032 226.53371388 539.19569767 227.31822926 539.59905857 228.12651783 C544.2515581 237.44328109 548.95237847 246.72623467 553.84922642 255.91765553 C557.85556966 263.44317912 561.6456343 271.0736921 565.43388218 278.71074635 C571.04888252 290.02659892 576.67278184 301.33001244 582.62754673 312.47185475 C586.67491107 320.07300241 590.47901273 327.79430417 594.31211704 335.50505787 C597.93268957 342.7718353 601.65137723 349.97598163 605.46348423 357.14372975 C609.0460698 363.90310641 612.47074945 370.73702713 615.85069126 377.59978443 C618.72615166 383.40913585 621.71531082 389.15202611 624.74473423 394.882011 C630.02144411 404.86725683 635.16173228 414.91975574 640.28446811 424.98467213 C642.9243587 430.17079027 645.56875217 435.35461053 648.21348423 440.538261 C648.73128452 441.5531963 649.24908481 442.5681316 649.78257602 443.61382252 C654.40654833 452.67240587 659.06928055 461.71026811 663.75132602 470.73894459 C668.56570566 480.02329106 673.35169322 489.32199171 678.13145298 498.6241985 C685.49897633 512.96035849 692.8932537 527.28243034 700.30479282 541.59587818 C703.10172034 546.99833695 705.89630611 552.40200626 708.69093174 557.80565602 C710.25432959 560.82856001 711.8178998 563.85137484 713.38145298 566.8741985 C714.00645381 568.0825314 714.63145381 569.29086473 715.25645298 570.4991985 C715.56582798 571.0973235 715.87520298 571.6954485 716.19395298 572.3116985 C734.00645296 606.74919845 734.00645296 606.74919845 734.94373935 608.56130177 C735.56943372 609.77096669 736.19514583 610.98062243 736.82087559 612.19026905 C738.37289651 615.19065453 739.92461986 618.19119313 741.47569126 621.19206959 C744.4127952 626.87372978 747.3531185 632.55366582 750.30314487 638.22862965 C751.70184729 640.91973022 753.09896423 643.61165239 754.49595493 646.30364186 C755.16459367 647.59100162 755.83401548 648.877955 756.50425571 650.1644817 C757.43142719 651.9443052 758.35572713 653.72562369 759.27989048 655.507011 C760.07145542 657.02899098 760.07145542 657.02899098 760.87901157 658.58171803 C762.13145298 661.1241985 762.13145298 661.1241985 763.13145298 664.1241985 C762.09737403 664.13689431 762.09737403 664.13689431 761.04240459 664.14984661 C667.8589676 665.1097195 667.8589676 665.1097195 574.69395298 667.0616985 C574.00909824 667.08103947 573.32424351 667.10038044 572.61863559 667.12030751 C545.21430199 667.90253057 517.81774238 669.01028168 490.42661899 670.15911061 C488.87249752 670.22374606 487.31837462 670.28834743 485.76425022 670.35291249 C482.90617674 670.47167355 480.04827096 670.59369716 477.1904282 670.7178722 C469.49827546 671.03918101 461.83026383 671.20005051 454.13145298 671.1241985 C453.39209507 669.63762745 453.39209507 669.63762745 452.63780063 668.12102467 C450.75750515 664.34193607 448.87430032 660.56430288 446.9903397 656.78704029 C446.18489343 655.17120736 445.38017274 653.55501248 444.5762772 651.93840748 C440.2588794 643.25756687 435.88878255 634.6133926 431.34239048 626.04997975 C424.45950635 613.07056729 417.98285578 599.88599626 411.44492954 586.73064381 C405.70760408 575.19265228 399.94576545 563.67980356 393.89866489 552.30071217 C387.70929598 540.61016509 381.90300302 528.72158153 376.01768345 516.87615162 C368.23099566 501.20938208 368.23099566 501.20938208 360.16270298 485.6866985 C353.33261045 472.83225255 346.9226971 459.76494737 340.44492954 446.73064381 C332.4329238 430.6033768 332.4329238 430.6033768 324.13145298 414.6241985 C317.31070252 401.79118572 310.9123197 388.74406639 304.44492954 375.73064381 C296.4329238 359.6033768 296.4329238 359.6033768 288.13145298 343.6241985 C281.31070252 330.79118572 274.9123197 317.74406639 268.44492954 304.73064381 C260.45222557 288.64060401 260.45222557 288.64060401 252.17051548 272.69841725 C245.71981831 260.56086705 239.63521918 248.23892334 233.50645298 235.9366985 C232.31914363 233.55704607 231.13164452 231.17748832 229.94395298 228.79802662 C227.67830105 224.25832446 225.41364427 219.71812854 223.15000767 215.17742115 C216.854415 202.46915077 216.854415 202.46915077 210.42198032 189.83049732 C209.13145298 187.1241985 209.13145298 187.1241985 209.13145298 185.1241985 C208.47145298 185.1241985 207.81145298 185.1241985 207.13145298 185.1241985 C207.02767338 185.82006062 206.92389377 186.51592274 206.81696934 187.23287159 C206.01973211 190.59540761 204.72015758 193.29885147 203.16319126 196.38542897 C202.70667431 197.29671055 202.70667431 197.29671055 202.24093479 198.22640187 C201.23342556 200.23423976 200.2175504 202.23772397 199.20176548 204.241386 C198.48908967 205.65858069 197.77701363 207.07607713 197.06550449 208.49385792 C195.18428515 212.23917118 193.29627532 215.98101703 191.40641636 219.72197682 C188.05959835 226.34953267 184.72421781 232.98285381 181.38926548 239.616386 C181.02847149 240.33346478 180.6676775 241.05054356 180.29595035 241.789352 C174.89254884 252.53324487 169.63166584 263.33626959 164.47862095 274.20281178 C161.44612091 280.58854074 158.2816406 286.90575867 155.09492344 293.21556813 C150.23369554 302.84563733 145.42779563 312.4952642 140.81895298 322.2491985 C135.17604963 334.18543329 129.23705318 345.97243992 123.29429477 357.76140553 C118.53968119 367.20943575 113.91399487 376.71133375 109.36704868 386.26103932 C103.73566535 398.07850852 97.95448634 409.82212348 92.18369907 421.5719524 C85.48297536 435.21989962 78.86768136 448.90538831 72.32328647 462.62895924 C69.63284958 468.2616955 66.91249887 473.87998733 64.19395298 479.4991985 C62.99693611 481.97556672 61.80041346 484.45217343 60.60410923 486.928886 C60.31001163 487.53774647 60.01591404 488.14660694 59.71290439 488.77391773 C56.84227857 494.71915196 53.9857135 500.67109479 51.13145298 506.6241985 C47.10967849 515.01191404 43.07423896 523.39293041 39.02778476 531.76876026 C36.39440051 537.21995803 33.76277824 542.67200661 31.13145298 548.1241985 C30.63178013 549.15947682 30.13210727 550.19475514 29.61729282 551.26140553 C17.10849315 577.19758678 4.74365175 603.20028437 -7.11586148 629.44036061 C-10.56675016 637.07321122 -14.04416769 644.69286053 -17.55995327 652.2960735 C-18.1599036 653.59359799 -18.1599036 653.59359799 -18.77197415 654.91733509 C-20.71742648 659.12270611 -22.66557433 663.32681196 -24.61634976 667.52971607 C-28.33032923 675.54335362 -31.98774598 683.57488649 -35.49391323 691.68195301 C-37.97056051 697.40500464 -40.56847367 703.06569746 -43.25135952 708.694511 C-44.26246791 710.83884231 -45.24203949 712.99866289 -46.17323452 715.178886 C-46.56768765 716.06833912 -46.96214077 716.95779225 -47.36854702 717.8741985 C-47.68823452 718.63216725 -48.00792202 719.390136 -48.33729702 720.1710735 C-52.84148686 725.91621359 -61.48203536 726.0037827 -68.18104702 726.8741985 C-70.5813128 727.20767235 -72.98101719 727.54520204 -75.38026577 727.88591725 C-76.03168545 727.97820103 -76.68310513 728.07048481 -77.3542648 728.16556507 C-86.75886397 729.51535075 -96.12406441 731.11484416 -105.49354702 732.6866985 C-106.37829708 732.83449757 -107.26304714 732.98229664 -108.17460781 733.13457447 C-117.53752518 734.69876895 -126.89479626 736.29078114 -136.24116665 737.95110279 C-141.15063194 738.82303993 -146.06259304 739.67961889 -150.97590786 740.529594 C-176.35919698 744.92333578 -201.6741211 749.57390483 -226.94154507 754.59197193 C-238.96259593 756.97773631 -250.99118764 759.28346824 -263.05604702 761.4366985 C-275.32844609 763.63402651 -287.53413921 766.04178812 -299.722673 768.66277272 C-307.52769307 770.34108069 -315.33397686 772.01345883 -323.14094692 773.68267018 C-326.31919345 774.36362426 -329.49648108 775.04892526 -332.6737228 775.73455006 C-334.6657118 776.16147469 -336.65773513 776.58823912 -338.64979702 777.0148235 C-339.56038876 777.21253346 -340.47098049 777.41024342 -341.40916592 777.61394459 C-346.55357769 778.71080494 -351.6390755 779.55141791 -356.86854702 780.1241985 C-355.29772963 775.14723426 -353.3640899 770.39026439 -351.32557827 765.5929485 C-350.96970639 764.75053608 -350.6138345 763.90812367 -350.24717861 763.0401836 C-349.06082199 760.23385276 -347.87103645 757.42899065 -346.68104702 754.6241985 C-345.83238535 752.61985064 -344.98383649 750.61545501 -344.13539273 748.6110149 C-341.38379545 742.11370229 -338.62639142 735.61886133 -335.86854702 729.1241985 C-334.93722591 726.92986511 -334.00591079 724.73552918 -333.07460171 722.54119068 C-308.85240565 665.48451496 -284.2131062 608.61219885 -259.26927334 551.86771351 C-256.62838247 545.85817558 -253.99505513 539.84535956 -251.36464077 533.83122975 C-242.02045547 512.47613381 -232.5399001 491.18678235 -222.94554287 469.94293934 C-219.73941241 462.84284897 -216.55168207 455.73463053 -213.36854702 448.6241985 C-211.5047035 444.46495931 -209.64025934 440.30598959 -207.77552944 436.14714772 C-207.14345237 434.73735212 -206.51146019 433.32751847 -205.87953335 431.91765553 C-196.69282508 411.42273676 -187.44812497 390.95710446 -178.0487228 370.55876881 C-173.80396336 361.34577544 -169.58838398 352.12032906 -165.4025436 342.88042408 C-152.33678029 314.04327642 -138.93451274 285.35988304 -125.52919155 256.67937428 C-123.83690262 253.05645286 -122.14719111 249.43234056 -120.45839077 245.80779225 C-112.64677797 229.04491501 -104.78855958 212.30435129 -96.90625149 195.57460743 C-94.5898942 190.65765255 -92.27709316 185.73903754 -89.96620327 180.819511 C-75.93404489 150.95180725 -61.82556903 121.12211499 -47.39439541 91.44483143 C-47.07906857 90.79632725 -46.76374172 90.14782307 -46.43885952 89.47966725 C-45.97541638 88.52654904 -45.97541638 88.52654904 -45.50261074 87.55417591 C-42.72572377 81.8388598 -39.97921671 76.10933279 -37.24354702 70.3741985 C-32.6239356 60.69043229 -27.96894992 51.02398289 -23.29896694 41.36443287 C-22.70757004 40.14112893 -22.11618011 38.91782162 -21.52479702 37.694511 C-21.2293449 37.08339466 -20.93389279 36.47227833 -20.62948757 35.84264332 C-18.71348874 31.87781306 -16.80312476 27.91031169 -14.89642483 23.94100147 C-13.59718613 21.23646053 -12.29645797 18.53263714 -10.99565274 15.82884938 C-10.37184527 14.53114994 -9.74877166 13.23309747 -9.12645108 11.93468434 C-8.26501905 10.13757847 -7.40083786 8.34179117 -6.53651577 6.5460735 C-6.0443356 5.52094654 -5.55215542 4.49581959 -5.04506069 3.43962818 C-3.37149282 0.14597437 -3.37149282 0.14597437 0 0 Z " fill="#EAE5D2" transform="translate(1529.8685470223427,852.8758015036583)"/>
<path d="M0 0 C121.11 0 242.22 0 367 0 C367 32.67 367 65.34 367 99 C288.46 99 209.92 99 129 99 C129 108.9 129 118.8 129 129 C205.89 129 282.78 129 362 129 C362 158.37 362 187.74 362 218 C285.11 218 208.22 218 129 218 C129 227.9 129 237.8 129 248 C207.54 248 286.08 248 367 248 C367 280.67 367 313.34 367 347 C245.89 347 124.78 347 0 347 C0 232.49 0 117.98 0 0 Z " fill="#EBE6D3" transform="translate(2509,317)"/>
<path d="M0 0 C42.57 0 85.14 0 129 0 C129 38.28 129 76.56 129 116 C184.44 116 239.88 116 297 116 C297 77.72 297 39.44 297 0 C339.9 0 382.8 0 427 0 C427 114.51 427 229.02 427 347 C384.1 347 341.2 347 297 347 C297 308.72 297 270.44 297 231 C241.56 231 186.12 231 129 231 C129 269.28 129 307.56 129 347 C86.43 347 43.86 347 0 347 C0 232.49 0 117.98 0 0 Z " fill="#EAE5D2" transform="translate(2033,317)"/>
<path d="M0 0 C127.71 0 255.42 0 387 0 C387 35.97 387 71.94 387 109 C344.43 109 301.86 109 258 109 C258 187.54 258 266.08 258 347 C215.43 347 172.86 347 129 347 C129 268.46 129 189.92 129 109 C86.43 109 43.86 109 0 109 C0 73.03 0 37.06 0 0 Z " fill="#EBE6D3" transform="translate(1617,317)"/>
<path d="M0 0 C1.49587646 0.00628418 1.49587646 0.00628418 3.02197266 0.01269531 C10.51202014 0.12753212 17.2403722 0.88922263 24.375 3.3125 C25.25929688 3.60253906 26.14359375 3.89257812 27.0546875 4.19140625 C39.02770347 8.54026767 48.60447617 16.1158269 54.25 27.6875 C58.26025712 36.52128316 58.71974456 46.25521167 58.6875 55.8125 C58.70361328 56.76769531 58.71972656 57.72289062 58.73632812 58.70703125 C58.74786496 75.75847974 51.06770905 91.14831075 39.375 103.3125 C33.59899469 108.94876324 27.23637998 113.21076755 20.1875 117.0625 C19.55392578 117.41521973 18.92035156 117.76793945 18.26757812 118.13134766 C3.92164396 125.60231191 -11.68030407 127.66723602 -27.5 129.75 C-29.65001795 130.04372771 -31.79983676 130.33891645 -33.94946289 130.63549805 C-38.34163449 131.24005695 -42.73461345 131.83809217 -47.12841797 132.43066406 C-56.20751588 133.65827852 -65.27824192 134.94396528 -74.34796143 136.23880005 C-76.99760406 136.61576719 -79.64788965 136.98788975 -82.29833984 137.35913086 C-89.39475653 138.36002362 -96.45449269 139.39459163 -103.46899414 140.88110352 C-107.3271717 141.65308854 -111.22404989 142.1241159 -115.125 142.625 C-137.5755872 145.61333672 -159.95528909 148.97732365 -182.28488159 152.76229858 C-193.39928745 154.64406565 -204.52404298 156.35855274 -215.69091797 157.90551758 C-224.75421102 159.16552987 -233.78571378 160.58801794 -242.8112793 162.09423828 C-243.78105713 162.2539209 -244.75083496 162.41360352 -245.75 162.578125 C-247.02230469 162.79130371 -247.02230469 162.79130371 -248.3203125 163.00878906 C-250.625 163.3125 -250.625 163.3125 -254.625 163.3125 C-254.69704912 132.90846443 -254.52077656 102.5131834 -254.16143799 72.11132812 C-254.09922146 66.79884951 -254.04000149 61.48633738 -253.98046875 56.17382812 C-253.86477818 45.88668552 -253.74599073 35.59958155 -253.625 25.3125 C-217.81677106 21.27651174 -182.007918 17.27541019 -146.15209961 13.68212891 C-143.74071938 13.44046234 -141.32934251 13.19876231 -138.91796875 12.95703125 C-137.68606308 12.83360352 -136.45415741 12.71017578 -135.18492126 12.58300781 C-123.5958943 11.41798604 -112.01072651 10.21657318 -100.42578125 9.01171875 C-98.46606046 8.80805936 -96.50633857 8.6044105 -94.5466156 8.40077209 C-86.75227338 7.59062689 -78.9579496 6.7803164 -71.16403198 5.96609497 C-13.26892698 -0.0807199 -13.26892698 -0.0807199 0 0 Z " fill="#A51B25" transform="translate(781.625,1131.6875)"/>
<path d="M0 0 C1.30710937 -0.01611328 2.61421875 -0.03222656 3.9609375 -0.04882812 C21.27472571 -0.05741631 37.46466802 3.6285689 50.625 15.3125 C51.54732422 16.06080078 51.54732422 16.06080078 52.48828125 16.82421875 C61.95719072 25.15937852 66.80178602 39.01603161 67.78466797 51.30957031 C68.80564049 69.56845648 65.03260889 87.38261304 52.625 101.3125 C45.7978439 107.47896357 38.23503606 111.240039 29.625 114.3125 C28.30435547 114.81136719 28.30435547 114.81136719 26.95703125 115.3203125 C18.1313072 117.94837101 9.48902596 118.67241111 0.3125 118.625 C-0.78255859 118.62153564 -1.87761719 118.61807129 -3.00585938 118.61450195 C-11.16875662 118.50502623 -18.53074258 117.68987969 -26.375 115.3125 C-27.19484375 115.08433594 -28.0146875 114.85617187 -28.859375 114.62109375 C-31.08514423 113.94952545 -33.21760615 113.1778283 -35.375 112.3125 C-36.16132813 111.99925781 -36.94765625 111.68601562 -37.7578125 111.36328125 C-48.56739246 106.53455039 -57.53837459 98.17150415 -62.375 87.3125 C-69.17437303 68.53745706 -70.24368905 47.42539624 -61.6875 28.9375 C-54.24492903 15.34751133 -42.11462416 6.82049502 -27.375 2.3125 C-18.27032262 0.25057919 -9.30471213 -0.02280567 0 0 Z " fill="#EAE4D1" transform="translate(2412.375,1750.6875)"/>
<path d="M0 0 C1.56106728 -0.00855011 1.56106728 -0.00855011 3.15367126 -0.01727295 C5.34975176 -0.02668174 7.54584611 -0.03324045 9.74194336 -0.03710938 C13.05543509 -0.04677463 16.36829511 -0.07782168 19.68164062 -0.109375 C38.27189039 -0.20221828 59.4172202 0.65245855 73.93359375 13.94921875 C80.00723454 20.34455662 83.29280184 27.13384637 83.125 36.02734375 C83.11090088 37.00147217 83.09680176 37.97560059 83.08227539 38.97924805 C83.06414795 39.71312744 83.04602051 40.44700684 83.02734375 41.203125 C77.10090776 41.32661616 71.17521846 41.41741272 65.24780273 41.4777832 C63.2310685 41.50294571 61.21442562 41.5370793 59.19799805 41.58032227 C56.30104055 41.64089825 53.40528714 41.66931669 50.5078125 41.69140625 C49.60459763 41.71721268 48.70138275 41.7430191 47.77079773 41.76960754 C45.41939052 41.7706639 43.31698769 41.74156759 41.02734375 41.203125 C39.43481445 38.79760742 39.43481445 38.79760742 38.02734375 36.203125 C32.42541751 34.20842288 27.16033313 33.90600088 21.2578125 33.9375 C20.05358391 33.93462982 20.05358391 33.93462982 18.82502747 33.93170166 C17.14352094 33.93035053 15.4620036 33.93397134 13.78051758 33.94238281 C11.20435436 33.95316892 8.62887724 33.94241524 6.05273438 33.9296875 C4.41275888 33.93100791 2.77278381 33.93356784 1.1328125 33.9375 C0.36406296 33.93345154 -0.40468658 33.92940308 -1.19673157 33.92523193 C-4.99035154 33.95869428 -6.73864212 34.04711558 -9.97265625 36.203125 C-10.69648092 38.26237639 -10.69648092 38.26237639 -10.97265625 40.203125 C-8.14686888 40.98699701 -5.50722585 41.38136813 -2.58154297 41.54443359 C-1.71898895 41.59473724 -0.85643494 41.64504089 0.03225708 41.6968689 C1.42587967 41.77344223 1.42587967 41.77344223 2.84765625 41.8515625 C4.84897827 41.9710206 6.8502797 42.09082416 8.8515625 42.2109375 C11.97944897 42.39467349 15.10741718 42.57562078 18.23583984 42.75 C52.59702296 44.68429337 52.59702296 44.68429337 65.83984375 50.140625 C66.47986328 50.37974609 67.11988281 50.61886719 67.77929688 50.86523438 C74.05941915 53.32154639 77.9345844 56.43338961 81.27734375 62.265625 C82.02757812 63.55146484 82.02757812 63.55146484 82.79296875 64.86328125 C86.76175443 72.38639081 86.29902892 84.98910764 84.08984375 93.203125 C80.94990089 100.62215279 74.99323076 106.63897417 67.77734375 110.078125 C65.87525283 110.82471547 63.95747029 111.53233535 62.02734375 112.203125 C60.52880859 112.75419922 60.52880859 112.75419922 59 113.31640625 C45.4488904 117.92277849 31.44451284 118.54237421 17.26342773 118.46386719 C14.96246111 118.45311386 12.66227193 118.46385955 10.36132812 118.4765625 C-8.65501314 118.49546 -29.58537382 116.73501782 -45.28515625 104.890625 C-50.69801471 99.47776654 -54.55334154 92.78434258 -55.97265625 85.203125 C-55.97265625 82.233125 -55.97265625 79.263125 -55.97265625 76.203125 C-41.78265625 76.203125 -27.59265625 76.203125 -12.97265625 76.203125 C-12.31265625 77.853125 -11.65265625 79.503125 -10.97265625 81.203125 C-4.79843808 85.61328084 4.56258313 84.38929722 11.74804688 84.38842773 C13.75803132 84.39060409 15.76745681 84.40876853 17.77734375 84.42773438 C25.10850063 84.4386873 31.91831727 84.0581563 39.02734375 82.203125 C39.02734375 80.553125 39.02734375 78.903125 39.02734375 77.203125 C36.13430922 75.5827791 33.82327637 74.89077292 30.52734375 74.60546875 C29.65029785 74.52683594 28.77325195 74.44820312 27.86962891 74.3671875 C26.9316748 74.29242187 25.9937207 74.21765625 25.02734375 74.140625 C24.05200684 74.05683594 23.07666992 73.97304687 22.07177734 73.88671875 C15.60290031 73.35139225 9.13653395 72.98546009 2.65234375 72.703125 C-9.01925512 72.16751053 -20.2991395 71.27049368 -31.53515625 67.828125 C-32.17807617 67.6312207 -32.82099609 67.43431641 -33.48339844 67.23144531 C-42.48763687 64.27082536 -49.35750216 59.60309743 -54.078125 51.24609375 C-57.49720514 42.85088759 -57.4315387 31.21155585 -54.47265625 22.703125 C-50.25593497 13.93057549 -42.9154542 8.56417658 -33.97265625 5.203125 C-22.6168019 1.64615898 -11.86555605 0.05127478 0 0 Z " fill="#EAE4D1" transform="translate(1920.97265625,1750.796875)"/>
<path d="M0 0 C40.26 0 80.52 0 122 0 C122 10.89 122 21.78 122 33 C95.93 33 69.86 33 43 33 C43 36.3 43 39.6 43 43 C68.41 43 93.82 43 120 43 C120 52.9 120 62.8 120 73 C94.59 73 69.18 73 43 73 C43 75.97 43 78.94 43 82 C69.07 82 95.14 82 122 82 C122 92.89 122 103.78 122 115 C81.74 115 41.48 115 0 115 C0 77.05 0 39.1 0 0 Z " fill="#EAE5D2" transform="translate(1735,1752)"/>
<path d="M0 0 C0.92307449 -0.00570007 1.84614899 -0.01140015 2.79719543 -0.01727295 C4.75305039 -0.0266993 6.70892106 -0.03324751 8.66479492 -0.03710938 C11.58998372 -0.04669623 14.51443253 -0.07769161 17.43945312 -0.109375 C36.53609249 -0.21733135 58.01288084 0.08998085 72.61328125 14.08203125 C79.76069707 22.30458801 80.12764267 31.87470948 79.640625 42.30175781 C79.23867124 46.46454485 77.65207564 49.71133821 75.45703125 53.203125 C75.11800781 53.82445312 74.77898438 54.44578125 74.4296875 55.0859375 C66.09241119 68.79348787 42.11390014 73.99455622 27.45703125 78.203125 C25.80703125 78.533125 24.15703125 78.863125 22.45703125 79.203125 C40.27703125 79.533125 58.09703125 79.863125 76.45703125 80.203125 C76.45703125 92.083125 76.45703125 103.963125 76.45703125 116.203125 C33.88703125 116.203125 -8.68296875 116.203125 -52.54296875 116.203125 C-52.54296875 104.323125 -52.54296875 92.443125 -52.54296875 80.203125 C-40.15430871 74.57191589 -40.15430871 74.57191589 -34.46875 72.30078125 C-33.86195404 72.05781815 -33.25515808 71.81485504 -32.62997437 71.56452942 C-30.70625484 70.79539571 -28.78096887 70.0302888 -26.85546875 69.265625 C-25.50560151 68.72741072 -24.15574811 68.18916173 -22.8059082 67.65087891 C-15.13401605 64.59738602 -7.43637523 61.63328909 0.30859375 58.76953125 C6.1177222 56.59670814 11.88006875 54.3036896 17.64453125 52.015625 C18.73354736 51.58685059 19.82256348 51.15807617 20.94458008 50.71630859 C21.97349365 50.30590332 23.00240723 49.89549805 24.0625 49.47265625 C24.98184326 49.10760986 25.90118652 48.74256348 26.84838867 48.36645508 C29.5805241 47.14805308 32.03459748 45.96649635 34.45703125 44.203125 C34.87428803 40.57713078 34.87428803 40.57713078 34.45703125 37.203125 C27.78609279 33.48940668 21.39636793 33.75572121 13.89453125 33.828125 C12.68861328 33.81652344 11.48269531 33.80492187 10.24023438 33.79296875 C9.07298828 33.79683594 7.90574219 33.80070312 6.703125 33.8046875 C5.64794678 33.80807129 4.59276855 33.81145508 3.50561523 33.81494141 C-0.28989073 34.29823239 -2.40513683 34.96728916 -5.54296875 37.203125 C-6.86296875 40.173125 -8.18296875 43.143125 -9.54296875 46.203125 C-23.40296875 46.203125 -37.26296875 46.203125 -51.54296875 46.203125 C-51.54296875 32.3903578 -51.20769137 22.13023828 -41.54296875 12.203125 C-30.94704831 2.44007167 -13.84682994 0.06749519 0 0 Z " fill="#EAE4D1" transform="translate(2540.54296875,1750.796875)"/>
<path d="M0 0 C0.92307449 -0.00570007 1.84614899 -0.01140015 2.79719543 -0.01727295 C4.75305039 -0.0266993 6.70892106 -0.03324751 8.66479492 -0.03710938 C11.58998372 -0.04669623 14.51443253 -0.07769161 17.43945312 -0.109375 C36.53609249 -0.21733135 58.01288084 0.08998085 72.61328125 14.08203125 C79.76069707 22.30458801 80.12764267 31.87470948 79.640625 42.30175781 C79.23867124 46.46454485 77.65207564 49.71133821 75.45703125 53.203125 C75.11800781 53.82445312 74.77898438 54.44578125 74.4296875 55.0859375 C66.09241119 68.79348787 42.11390014 73.99455622 27.45703125 78.203125 C25.80703125 78.533125 24.15703125 78.863125 22.45703125 79.203125 C40.27703125 79.533125 58.09703125 79.863125 76.45703125 80.203125 C76.45703125 92.083125 76.45703125 103.963125 76.45703125 116.203125 C33.88703125 116.203125 -8.68296875 116.203125 -52.54296875 116.203125 C-52.54296875 104.323125 -52.54296875 92.443125 -52.54296875 80.203125 C-40.15430871 74.57191589 -40.15430871 74.57191589 -34.46875 72.30078125 C-33.86195404 72.05781815 -33.25515808 71.81485504 -32.62997437 71.56452942 C-30.70625484 70.79539571 -28.78096887 70.0302888 -26.85546875 69.265625 C-25.50560151 68.72741072 -24.15574811 68.18916173 -22.8059082 67.65087891 C-15.13401605 64.59738602 -7.43637523 61.63328909 0.30859375 58.76953125 C6.1177222 56.59670814 11.88006875 54.3036896 17.64453125 52.015625 C18.73354736 51.58685059 19.82256348 51.15807617 20.94458008 50.71630859 C21.97349365 50.30590332 23.00240723 49.89549805 24.0625 49.47265625 C24.98184326 49.10760986 25.90118652 48.74256348 26.84838867 48.36645508 C29.5805241 47.14805308 32.03459748 45.96649635 34.45703125 44.203125 C34.87428803 40.57713078 34.87428803 40.57713078 34.45703125 37.203125 C27.78609279 33.48940668 21.39636793 33.75572121 13.89453125 33.828125 C12.68861328 33.81652344 11.48269531 33.80492187 10.24023438 33.79296875 C9.07298828 33.79683594 7.90574219 33.80070312 6.703125 33.8046875 C5.64794678 33.80807129 4.59276855 33.81145508 3.50561523 33.81494141 C-0.28989073 34.29823239 -2.40513683 34.96728916 -5.54296875 37.203125 C-6.86296875 40.173125 -8.18296875 43.143125 -9.54296875 46.203125 C-23.40296875 46.203125 -37.26296875 46.203125 -51.54296875 46.203125 C-51.54296875 32.3903578 -51.20769137 22.13023828 -41.54296875 12.203125 C-30.94704831 2.44007167 -13.84682994 0.06749519 0 0 Z " fill="#EAE4D1" transform="translate(2257.54296875,1750.796875)"/>
<path d="M0 0 C1.1263385 0.00707474 2.252677 0.01414948 3.41314697 0.0214386 C7.010482 0.04942633 10.60626044 0.11217728 14.203125 0.17578125 C16.64190461 0.20085826 19.08070861 0.22367246 21.51953125 0.24414062 C27.4979269 0.29926747 33.47541475 0.38293894 39.453125 0.48828125 C38.16453377 3.12615416 36.87530225 5.38977173 35.01953125 7.66796875 C34.5412085 8.259729 34.06288574 8.85148926 33.57006836 9.46118164 C33.05710205 10.08887451 32.54413574 10.71656738 32.015625 11.36328125 C30.92394286 12.7131081 29.83280893 14.06337848 28.7421875 15.4140625 C28.19079102 16.09549316 27.63939453 16.77692383 27.07128906 17.47900391 C24.65210091 20.48291436 22.26892146 23.5144564 19.890625 26.55078125 C19.44146729 27.1236084 18.99230957 27.69643555 18.52954102 28.28662109 C17.62348695 29.44238022 16.71764305 30.59830413 15.81201172 31.75439453 C13.52859197 34.66794952 11.24061792 37.57792392 8.953125 40.48828125 C8.05075965 41.63670178 7.14841597 42.78513934 6.24609375 43.93359375 C1.6484375 49.78515625 -2.94921875 55.63671875 -7.546875 61.48828125 C2.023125 61.81828125 11.593125 62.14828125 21.453125 62.48828125 C21.453125 55.22828125 21.453125 47.96828125 21.453125 40.48828125 C35.643125 40.48828125 49.833125 40.48828125 64.453125 40.48828125 C64.453125 48.07828125 64.453125 55.66828125 64.453125 63.48828125 C69.733125 63.48828125 75.013125 63.48828125 80.453125 63.48828125 C80.453125 75.36828125 80.453125 87.24828125 80.453125 99.48828125 C75.173125 99.48828125 69.893125 99.48828125 64.453125 99.48828125 C64.453125 104.76828125 64.453125 110.04828125 64.453125 115.48828125 C50.263125 115.48828125 36.073125 115.48828125 21.453125 115.48828125 C21.453125 110.20828125 21.453125 104.92828125 21.453125 99.48828125 C-5.606875 99.48828125 -32.666875 99.48828125 -60.546875 99.48828125 C-60.546875 62.48828125 -60.546875 62.48828125 -55.234375 53.55078125 C-51.90625 50.40234375 -51.90625 50.40234375 -50.19726562 48.96582031 C-47.38471364 46.44783738 -45.2399454 43.43662536 -42.984375 40.42578125 C-42.07957092 39.26607991 -41.17202744 38.10851052 -40.26171875 36.953125 C-39.81425293 36.38190918 -39.36678711 35.81069336 -38.90576172 35.22216797 C-36.622342 32.30861301 -34.33438549 29.39862473 -32.046875 26.48828125 C-29.21405619 22.88343031 -26.38175178 19.27817769 -23.55078125 15.671875 C-23.05835937 15.04474609 -22.5659375 14.41761719 -22.05859375 13.77148438 C-21.12221086 12.57892126 -20.18600077 11.38622243 -19.25 10.19335938 C-18.01732967 8.62365984 -16.78216584 7.05591938 -15.546875 5.48828125 C-15.07531982 4.61026855 -14.60376465 3.73225586 -14.11791992 2.82763672 C-9.95103133 -0.96375313 -5.42776993 -0.12792867 0 0 Z " fill="#EAE4D1" transform="translate(2690.546875,1751.51171875)"/>
<path d="M0 0 C42.24 0 84.48 0 128 0 C128 11.88 128 23.76 128 36 C113.81 36 99.62 36 85 36 C85 62.07 85 88.14 85 115 C70.81 115 56.62 115 42 115 C42 88.93 42 62.86 42 36 C28.14 36 14.28 36 0 36 C0 24.12 0 12.24 0 0 Z " fill="#EAE5D2" transform="translate(2010,1752)"/>
<path d="M0 0 C5.55305701 3.09689718 9.91574046 7.43650194 11.80859375 13.64453125 C13.47297454 21.81914486 12.48261858 29.59751325 8.25 36.8125 C4.82889077 40.80535625 0.46878824 43.46493671 -4.80297852 44.03417969 C-7.22616221 44.15402012 -9.63644358 44.18372404 -12.0625 44.1875 C-13.28743164 44.22423828 -13.28743164 44.22423828 -14.53710938 44.26171875 C-21.02062318 44.29271563 -26.37430727 42.85434486 -31.27807617 38.43554688 C-36.92956807 32.14996517 -37.20778557 25.30673832 -37.0546875 17.2265625 C-36.5453981 11.51990944 -35.04087877 7.90978339 -30.80859375 4.03515625 C-22.56910304 -2.41380057 -9.99693374 -3.40935891 0 0 Z " fill="#A51D26" transform="translate(2424.75,1788.1875)"/>
</svg>
